<svg width="1157" height="475" viewBox="0 0 1157 475" fill="none" xmlns="http://www.w3.org/2000/svg">
<g clip-path="url(#clip0_593_2)">
<path d="M181.277 2.81067V227.101L67.6504 2.81067H0V250.804H37.1561V23.0474L152.284 250.804H218.433V2.81067H181.277Z" fill="white"/>
<path d="M751.004 230.567L671.906 2.81067H629.965L719.383 250.804H782.624L872.699 2.81067H831.509L751.004 230.567Z" fill="white"/>
<path d="M1002.93 2.81067L909.105 250.804H948.42L1033.8 20.8925L1117.59 250.804H1157L1065.05 2.81067H1002.93Z" fill="white"/>
<path d="M506.582 17.0513C486.596 5.71499 464.922 0 441.371 0H441.277C417.538 0 395.676 5.71499 375.691 17.0513C355.705 28.3876 339.942 43.7525 328.401 63.2396C316.86 82.7268 311.137 103.9 311.137 126.854C311.137 126.854 311.137 126.854 311.137 126.948H349.043C349.043 126.948 349.043 126.948 349.043 126.854C349.043 110.084 353.078 94.7189 361.147 80.6657C369.217 66.6124 380.288 55.3698 394.456 47.0316C408.531 38.6933 424.2 34.4773 441.371 34.4773C458.541 34.4773 474.117 38.6933 488.285 47.0316C502.359 55.4635 513.431 66.6124 521.594 80.6657C529.663 94.7189 533.698 110.178 533.698 126.854C533.698 126.854 533.698 126.854 533.698 126.948H571.605C571.605 126.948 571.605 126.948 571.605 126.854C571.605 103.994 565.787 82.7268 554.153 63.2396C542.518 43.7525 526.661 28.3876 506.675 17.0513" fill="white"/>
<path d="M492.039 400.424C488.286 398.269 484.064 397.239 479.279 397.239C474.024 397.239 469.614 398.55 466.049 401.08C462.39 403.609 459.95 406.982 458.543 411.105V397.894H449.629V474.157H458.543V436.4C459.95 440.523 462.39 443.895 466.049 446.425C469.708 448.955 474.118 450.266 479.279 450.266C484.064 450.266 488.286 449.236 492.039 447.081C495.793 444.926 498.701 441.834 500.765 437.899C502.924 433.871 503.956 429.186 503.956 423.846C503.956 418.506 502.924 413.728 500.765 409.699C498.607 405.671 495.699 402.579 492.039 400.424ZM490.069 437.712C486.785 441.085 482.375 442.771 476.839 442.771C473.368 442.771 470.271 442.022 467.456 440.429C464.641 438.836 462.483 436.681 460.888 433.777C459.293 430.873 458.543 427.594 458.543 423.846C458.543 420.099 459.293 416.726 460.888 413.821C462.483 410.917 464.641 408.762 467.456 407.17C470.271 405.671 473.368 404.827 476.839 404.827C482.375 404.827 486.785 406.514 490.069 409.887C493.353 413.259 495.042 417.85 495.042 423.752C495.042 429.655 493.353 434.339 490.069 437.618" fill="white"/>
<path d="M295.937 408.294V397.801H287.023V449.517H295.937V422.253C295.937 416.538 297.532 412.416 300.722 409.98C303.913 407.451 308.041 406.233 313.014 406.233H315.735V396.864C311.044 396.864 307.009 397.894 303.631 399.862C300.253 401.829 297.626 404.64 295.937 408.2" fill="white"/>
<path d="M426.452 425.345C426.452 431.154 424.95 435.651 422.042 438.649C419.133 441.741 415.192 443.24 410.313 443.24C405.434 443.24 401.869 441.834 399.148 439.024C396.427 436.213 395.019 432.278 395.019 427.125V397.801H386.105V427.968C386.105 435.182 387.982 440.71 391.923 444.645C395.77 448.486 400.837 450.454 407.029 450.454C411.627 450.454 415.755 449.329 419.227 447.081C422.699 444.832 425.138 441.647 426.546 437.431V449.61H435.459V397.894H426.546V425.439L426.452 425.345Z" fill="white"/>
<path d="M362.835 400.424C358.8 398.269 354.109 397.239 348.948 397.239C343.788 397.239 339.19 398.269 335.062 400.424C331.027 402.579 327.743 405.671 325.398 409.699C323.052 413.728 321.832 418.412 321.832 423.846C321.832 429.28 323.052 433.965 325.398 437.899C327.743 441.928 330.933 444.926 335.062 447.081C339.096 449.236 343.788 450.266 348.948 450.266C354.109 450.266 358.707 449.236 362.835 447.081C366.87 444.926 370.154 441.834 372.406 437.899C374.751 433.871 375.877 429.186 375.877 423.846C375.877 418.506 374.751 413.728 372.406 409.699C370.06 405.671 366.87 402.579 362.835 400.424ZM364.43 434.339C362.741 437.244 360.583 439.305 357.862 440.71C355.141 442.115 352.233 442.771 349.042 442.771C345.852 442.771 342.85 442.115 340.222 440.71C337.501 439.305 335.343 437.244 333.654 434.339C331.966 431.529 331.121 427.968 331.121 423.846C331.121 419.724 331.966 416.07 333.654 413.259C335.343 410.355 337.501 408.294 340.222 406.889C342.943 405.483 345.852 404.827 349.042 404.827C352.233 404.827 355.235 405.483 357.862 406.889C360.583 408.294 362.741 410.355 364.43 413.259C366.119 416.07 366.964 419.63 366.964 423.846C366.964 428.062 366.119 431.529 364.43 434.339Z" fill="white"/>
<path d="M263.94 411.011C262.533 406.795 260 403.422 256.34 400.893C252.681 398.363 248.271 397.145 243.111 397.145C238.325 397.145 234.103 398.176 230.35 400.33C226.597 402.485 223.688 405.577 221.624 409.606C219.466 413.634 218.434 418.319 218.434 423.752C218.434 429.186 219.466 433.871 221.624 437.806C223.782 441.834 226.69 444.832 230.35 446.987C234.103 449.142 238.325 450.173 243.111 450.173C248.365 450.173 252.775 448.955 256.34 446.425C260 443.895 262.533 440.523 263.94 436.307V450.36C263.94 455.7 262.345 459.822 259.155 462.821C255.965 465.819 252.024 467.318 247.145 467.318C242.548 467.318 238.888 466.287 235.98 464.32C233.071 462.352 231.1 459.635 230.068 456.169H221.248C222.468 461.884 225.377 466.474 229.975 469.753C234.572 473.126 240.483 474.813 247.708 474.813C252.681 474.813 257.091 473.782 260.938 471.721C264.691 469.66 267.694 466.755 269.758 463.008C271.822 459.26 272.854 455.044 272.854 450.266V397.707H263.94V410.917V411.011ZM261.595 433.683C260 436.588 257.842 438.743 255.121 440.335C252.306 441.928 249.209 442.678 245.644 442.678C240.202 442.678 235.792 440.991 232.508 437.618C229.224 434.246 227.535 429.655 227.535 423.752C227.535 417.85 229.224 413.166 232.508 409.887C235.792 406.514 240.202 404.827 245.644 404.827C249.209 404.827 252.306 405.577 255.121 407.17C257.935 408.669 260.093 410.917 261.595 413.821C263.19 416.726 263.94 420.005 263.94 423.846C263.94 427.687 263.19 430.966 261.595 433.777" fill="white"/>
<path d="M329.714 353.393C332.06 349.364 333.186 344.679 333.186 339.339C333.186 333.999 332.06 329.221 329.714 325.192C327.369 321.164 324.178 318.072 320.144 315.917C316.109 313.762 311.418 312.732 306.257 312.732C301.097 312.732 296.499 313.762 292.37 315.917C288.336 318.072 285.052 321.164 282.706 325.192C280.36 329.221 279.141 333.905 279.141 339.339C279.141 344.773 280.267 349.458 282.706 353.393C285.052 357.421 288.242 360.419 292.37 362.574C296.405 364.729 301.097 365.759 306.257 365.759C311.418 365.759 316.015 364.729 320.144 362.574C324.178 360.419 327.462 357.421 329.714 353.393ZM321.645 349.832C319.956 352.737 317.798 354.798 315.077 356.203C312.356 357.608 309.447 358.264 306.257 358.264C303.067 358.264 300.064 357.608 297.437 356.203C294.716 354.798 292.558 352.737 290.869 349.832C289.18 347.022 288.336 343.462 288.336 339.339C288.336 335.217 289.18 331.563 290.869 328.752C292.558 325.942 294.716 323.787 297.437 322.382C300.158 320.976 303.067 320.32 306.257 320.32C309.447 320.32 312.45 320.976 315.077 322.382C317.798 323.787 319.956 325.848 321.645 328.752C323.334 331.657 324.178 335.123 324.178 339.339C324.178 343.555 323.334 347.022 321.645 349.832Z" fill="white"/>
<path d="M231.194 362.574C235.135 364.729 239.733 365.759 244.893 365.759C251.743 365.759 257.466 363.979 261.97 360.513C266.474 357.046 269.289 352.268 270.321 346.366H260.938C260.281 350.113 258.498 353.018 255.59 355.173C252.681 357.327 249.116 358.358 244.799 358.358C241.703 358.358 238.794 357.702 236.261 356.297C233.728 354.892 231.57 352.83 230.068 349.926C228.473 347.115 227.723 343.555 227.723 339.339C227.723 335.123 228.473 331.563 230.068 328.752C231.663 325.942 233.728 323.787 236.261 322.382C238.794 320.976 241.703 320.321 244.799 320.321C249.116 320.321 252.681 321.351 255.59 323.506C258.498 325.567 260.281 328.471 260.938 332.219H270.321C269.289 326.317 266.474 321.632 261.97 318.072C257.466 314.512 251.743 312.825 244.893 312.825C239.733 312.825 235.135 313.856 231.194 316.011C227.253 318.166 224.063 321.257 221.811 325.286C219.56 329.315 218.434 333.999 218.434 339.433C218.434 344.867 219.56 349.551 221.811 353.486C224.063 357.515 227.16 360.513 231.194 362.668" fill="white"/>
<path d="M394.08 365.197V335.123C394.08 327.816 392.11 322.288 388.263 318.353C384.416 314.512 379.349 312.544 373.063 312.544C368.465 312.544 364.431 313.669 360.959 315.917C357.487 318.166 355.048 321.445 353.64 325.661V313.388H344.727V365.104H353.64V337.653C353.64 331.844 355.142 327.347 358.05 324.349C360.959 321.257 364.9 319.758 369.779 319.758C374.658 319.758 378.223 321.164 380.944 323.881C383.665 326.691 385.073 330.626 385.073 335.779V365.104H393.987L394.08 365.197Z" fill="white"/>
<path d="M631.559 312.544C626.961 312.544 622.927 313.669 619.455 315.917C615.983 318.166 613.544 321.445 612.136 325.661V313.388H603.223V365.104H612.136V337.653C612.136 331.844 613.638 327.347 616.546 324.349C619.455 321.257 623.396 319.758 628.275 319.758C633.154 319.758 636.719 321.164 639.44 323.881C642.162 326.598 643.569 330.626 643.569 335.779V365.104H652.483V335.03C652.483 327.722 650.512 322.194 646.665 318.259C642.818 314.418 637.752 312.451 631.465 312.451" fill="white"/>
<path d="M497.198 340.932C497.198 346.741 495.697 351.238 492.788 354.236C489.879 357.327 485.938 358.826 481.059 358.826C476.18 358.826 472.615 357.421 469.894 354.61C467.173 351.8 465.765 347.865 465.765 342.712V313.388H456.852V343.555C456.852 350.769 458.822 356.297 462.669 360.232C466.516 364.073 471.583 366.04 477.775 366.04C482.373 366.04 486.501 364.916 489.973 362.668C493.445 360.419 495.884 357.234 497.292 353.018V365.197H506.205V313.481H497.292V341.026L497.198 340.932Z" fill="white"/>
<path d="M709.062 326.598C707.654 322.382 705.121 319.009 701.461 316.479C697.802 313.95 693.392 312.732 688.232 312.732C683.446 312.732 679.224 313.762 675.471 315.917C671.718 318.072 668.809 321.164 666.745 325.192C664.587 329.221 663.555 333.905 663.555 339.339C663.555 344.773 664.587 349.458 666.745 353.393C668.903 357.421 671.812 360.419 675.471 362.574C679.224 364.729 683.446 365.759 688.232 365.759C693.486 365.759 697.896 364.541 701.461 362.012C705.121 359.482 707.654 356.109 709.062 351.893V365.947C709.062 371.287 707.466 375.409 704.276 378.407C701.086 381.405 697.145 382.904 692.266 382.904C687.669 382.904 684.009 381.874 681.101 379.906C678.192 377.939 676.222 375.222 675.189 371.755H666.37C667.589 377.47 670.498 382.061 675.096 385.34C679.693 388.713 685.604 390.399 692.829 390.399C697.896 390.399 702.212 389.369 706.059 387.308C709.812 385.247 712.815 382.342 714.879 378.595C716.943 374.847 717.975 370.631 717.975 365.853V313.294H709.062V326.504V326.598ZM706.716 349.27C705.121 352.175 702.963 354.329 700.242 355.922C697.427 357.515 694.33 358.264 690.765 358.264C685.323 358.264 680.913 356.578 677.629 353.205C674.345 349.832 672.656 345.242 672.656 339.339C672.656 333.437 674.345 328.752 677.629 325.473C680.913 322.101 685.323 320.414 690.765 320.414C694.33 320.414 697.427 321.164 700.242 322.756C703.056 324.255 705.215 326.504 706.716 329.408C708.311 332.313 709.062 335.592 709.062 339.433C709.062 343.274 708.311 346.553 706.716 349.364" fill="white"/>
<path d="M588.965 313.388H580.051V365.104H588.965V313.388Z" fill="white"/>
<path d="M584.552 292.964C582.769 292.964 581.268 293.432 580.142 294.463C579.016 295.399 578.453 296.711 578.453 298.304C578.453 299.896 579.016 301.114 580.142 302.145C581.268 303.082 582.675 303.644 584.552 303.644C586.429 303.644 587.836 303.176 588.962 302.145C590.088 301.208 590.651 299.896 590.651 298.304C590.651 296.711 590.088 295.493 588.962 294.463C587.836 293.526 586.429 292.964 584.552 292.964Z" fill="white"/>
<path d="M529.289 295.399H520.375V365.197H529.289V295.399Z" fill="white"/>
<path d="M557.156 355.735C555.843 354.517 555.28 352.268 555.28 348.895V320.789H569.167V313.388H555.28V300.459H546.272V313.388H538.203V320.789H546.272V348.708C546.272 354.61 547.586 358.826 550.307 361.356C553.028 363.886 557.156 365.104 562.599 365.104H569.26V357.608H563.818C560.722 357.608 558.47 356.953 557.25 355.735" fill="white"/>
<path d="M437.523 339.058C435.083 338.121 431.893 337.278 427.858 336.341C424.762 335.685 422.229 335.03 420.446 334.374C418.663 333.812 417.162 332.875 415.942 331.75C414.722 330.626 414.159 329.033 414.159 327.16C414.159 324.63 415.098 322.663 416.881 321.164C418.663 319.665 421.197 318.915 424.387 318.915C428.14 318.915 431.236 319.946 433.488 321.913C435.74 323.881 437.054 326.41 437.429 329.502H445.967C445.217 324.349 442.965 320.227 439.306 317.229C435.646 314.137 430.767 312.638 424.668 312.638C418.945 312.638 414.441 313.95 411.063 316.667C407.779 319.384 406.09 322.85 406.09 327.16C406.09 330.439 406.935 333.062 408.624 334.936C410.313 336.81 412.283 338.215 414.722 339.152C417.068 339.995 420.258 340.932 424.293 341.775C427.483 342.431 430.017 343.087 431.799 343.743C433.582 344.398 435.177 345.242 436.397 346.46C437.617 347.677 438.273 349.27 438.273 351.238C438.273 353.674 437.429 355.641 435.646 357.14C433.957 358.639 431.518 359.389 428.421 359.389C424.293 359.389 421.009 358.452 418.476 356.484C415.942 354.517 414.535 351.987 414.253 348.802H405.621C406.372 354.048 408.717 358.171 412.752 361.169C416.787 364.167 422.041 365.572 428.421 365.572C433.863 365.572 438.273 364.26 441.557 361.637C444.841 359.014 446.53 355.547 446.53 351.331C446.53 347.959 445.686 345.242 443.903 343.18C442.214 341.213 440.056 339.714 437.617 338.777" fill="white"/>
</g>
<defs>
<clipPath id="clip0_593_2">
<rect width="1157" height="475" fill="white"/>
</clipPath>
</defs>
</svg>
